<svg xmlns="http://www.w3.org/2000/svg" xmlns:xlink="http://www.w3.org/1999/xlink" version="1.1" width="1000" height="1000" viewBox="0 0 1000 1000" xml:space="preserve">
<desc>Created with Fabric.js 3.5.0</desc>
<defs>
</defs>
<rect x="0" y="0" width="100%" height="100%" fill="rgba(255,255,255,0)"/>
<style>
	path {
		fill: #777777!important;
	}
</style>
<g transform="matrix(3.1808 0 0 3.1808 500.0013 500.0013)" id="88940">
<path style="stroke: none; stroke-width: 1; stroke-dasharray: none; stroke-linecap: butt; stroke-dashoffset: 0; stroke-linejoin: miter; stroke-miterlimit: 4; is-custom-font: none; font-file-url: none; fill: rgb(0,208,255); fill-rule: evenodd; opacity: 1;" vector-effect="non-scaling-stroke" transform=" translate(-199.1657, -200.7283)" d="M 182.511 58.81 C 146.977 63.312 117.963 78.814 93.133 106.565 C 90.351 109.674 88.315 112.231 88.608 112.247 C 88.901 112.264 88.206 113.056 87.064 114.008 C 85.923 114.96 84.933 116.067 84.864 116.467 C 84.598 118.023 81.226 123.077 80.454 123.077 C 80.005 123.077 79.728 123.382 79.839 123.756 C 79.949 124.129 78.116 127.937 75.766 132.218 C 73.416 136.5 71.493 140.47 71.493 141.042 C 71.493 141.614 71.086 142.081 70.588 142.081 C 70.09 142.081 69.75 142.387 69.832 142.76 C 70.155 144.239 68.525 148.416 67.624 148.416 C 67.098 148.416 66.907 148.657 67.201 148.951 C 67.495 149.244 67.155 151.128 66.447 153.137 C 64.844 157.681 64.691 160.421 66.156 158.371 C 66.916 157.307 67.013 157.502 66.607 159.276 C 66.321 160.52 66.083 161.868 66.076 162.271 C 66.069 162.673 65.715 162.787 65.289 162.524 C 64.863 162.261 64.544 162.95 64.578 164.055 C 64.676 167.144 63.219 174.661 62.523 174.661 C 62.182 174.661 61.871 176.188 61.831 178.054 C 61.792 179.921 61.512 184.095 61.21 187.33 C 60.067 199.542 59.96 202.846 60.731 202.075 C 61.164 201.641 61.936 197.026 62.445 191.82 C 63.442 181.619 65.337 170.979 67.636 162.668 C 69.782 154.909 70.056 157.054 67.969 165.28 C 66.976 169.195 65.953 174.638 65.696 177.376 L 65.228 182.353 L 66.199 177.376 C 66.733 174.638 67.43 172.195 67.748 171.946 C 68.066 171.697 68.441 170.084 68.581 168.361 C 68.722 166.638 69.129 165.009 69.486 164.741 C 69.844 164.473 70.226 163.036 70.336 161.547 C 70.446 160.059 70.932 158.709 71.416 158.548 C 71.9 158.386 72.072 157.67 71.798 156.955 C 71.524 156.241 71.774 155.656 72.355 155.656 C 72.935 155.656 73.177 155.279 72.892 154.818 C 72.158 153.63 75.943 143.891 77.139 143.891 C 77.684 143.891 77.863 143.625 77.538 143.3 C 75.384 141.146 91.713 116.891 102.927 105.585 C 166.726 41.266 270.119 57.099 312.03 137.606 C 331.255 174.533 330.274 228.023 309.701 264.706 C 304.01 274.852 292.506 290.641 290.928 290.471 C 290.65 290.441 287.283 293.351 283.447 296.938 C 279.61 300.525 277.692 302.617 279.186 301.586 C 280.679 300.556 283.083 298.468 284.528 296.947 C 285.973 295.426 287.434 294.354 287.774 294.565 C 288.115 294.775 291.311 292.166 294.876 288.767 C 302.252 281.733 302.827 281.615 297.852 288.153 C 290.508 297.806 280.397 306.984 267.961 315.285 C 263.778 318.077 260.724 320.364 261.174 320.367 C 261.623 320.369 260.362 321.375 258.371 322.601 C 252.135 326.442 255.819 325.086 263.606 320.675 C 307.2 295.978 332.598 250.841 333.205 196.983 C 333.338 185.184 334.648 178.637 335.011 187.956 C 336.187 218.102 325.87 263.429 316.362 269.896 C 315.776 270.294 315.747 270.572 316.29 270.588 C 316.893 270.607 316.893 270.838 316.29 271.281 C 315.792 271.647 314.639 273.415 313.727 275.212 C 300.594 301.09 261.53 329.601 229.432 336.735 C 225.071 337.704 224.457 338.042 226.264 338.477 C 228.404 338.993 220.347 340.595 203.62 342.981 C 198.399 343.725 198.828 343.774 207.433 343.414 C 252.359 341.532 297.704 312.761 320.447 271.707 C 326.237 261.256 332.34 245.886 332.457 241.462 C 332.506 239.628 332.801 238.541 333.113 239.046 C 333.941 240.386 334.838 235.025 334.197 232.572 C 333.8 231.055 333.957 230.675 334.773 231.179 C 335.536 231.651 335.805 231.334 335.617 230.189 C 335.464 229.264 335.602 228.089 335.923 227.579 C 338.923 222.812 338.788 191.093 335.691 172.975 C 323.664 102.629 252.904 49.891 182.511 58.81 M 159.972 113.402 L 152.976 117.195 L 152.959 124.853 C 152.942 132.132 153.064 132.609 155.43 134.497 L 157.919 136.482 L 155.43 137.617 C 151.722 139.308 151.538 154.15 155.204 155.821 C 156.448 156.388 157.466 157.125 157.466 157.458 C 157.466 157.792 156.448 158.61 155.204 159.276 C 153.053 160.427 152.941 160.881 152.941 168.46 L 152.941 176.434 L 156.695 178.349 L 160.448 180.263 L 156.921 182.239 L 153.394 184.215 L 153.157 192.334 L 152.921 200.452 L 160.078 204.189 L 167.235 207.925 L 174.342 204.146 C 180.788 200.719 181.475 200.092 181.737 197.396 C 181.969 195.012 182.326 194.551 183.547 195.066 C 187.137 196.581 189.035 196.23 195.023 192.946 C 200.921 189.71 201.377 189.241 201.638 186.138 C 201.96 182.32 201.913 182.344 205.491 184.194 C 209.679 186.36 222.593 179.339 222.612 174.887 C 222.626 171.531 222.726 171.484 226.115 173.236 C 228.474 174.456 229.018 174.304 236.025 170.468 L 243.439 166.409 L 243.439 158.847 L 243.439 151.285 L 235.973 147.203 L 228.507 143.121 L 225.566 144.937 L 222.624 146.754 L 222.612 143.286 C 222.599 139.882 222.467 139.748 215.328 135.909 L 208.058 131.999 L 204.934 133.842 L 201.81 135.686 L 201.81 132.127 C 201.81 128.65 201.659 128.483 195.249 124.895 C 189.055 121.428 187.166 121.054 183.547 122.581 C 182.324 123.097 181.969 122.633 181.737 120.208 C 181.503 117.767 168.378 108.264 167.025 109.556 C 166.994 109.585 163.82 111.316 159.972 113.402 M 173.867 114.236 C 180.435 117.847 180.453 117.649 173.233 121.46 L 167.28 124.603 L 161.409 121.486 C 158.18 119.771 155.369 118.537 155.163 118.743 C 154.957 118.95 157.423 120.518 160.644 122.229 L 166.501 125.339 L 166.508 132.309 L 166.516 139.278 L 160.197 135.929 L 153.877 132.579 L 153.862 125.676 C 153.844 117.982 153.749 118.133 161.2 114.026 C 167.267 110.681 167.405 110.684 173.867 114.236 M 180.659 123.554 C 180.395 124.242 178.53 125.646 176.515 126.674 C 173.063 128.435 172.851 128.776 172.851 132.566 C 172.851 135.616 172.428 136.814 171.1 137.525 C 167.846 139.266 167.421 138.646 167.421 132.157 L 167.421 125.853 L 173.982 122.221 C 180.722 118.49 182.468 118.838 180.659 123.554 M 194.027 125.456 L 200.212 128.74 L 193.771 132.313 L 187.33 135.885 L 180.841 132.286 L 174.353 128.687 L 180.615 125.474 C 188.256 121.554 186.682 121.556 194.027 125.456 M 317.195 133.032 C 318.456 135.52 319.284 137.557 319.035 137.557 C 318.786 137.557 317.551 135.52 316.29 133.032 C 315.028 130.543 314.2 128.507 314.449 128.507 C 314.698 128.507 315.933 130.543 317.195 133.032 M 181.089 133.596 L 187.33 136.876 L 187.33 143.551 C 187.33 151.358 187.851 151.124 179.973 146.868 L 173.756 143.511 L 173.756 136.914 C 173.756 133.285 174.002 130.317 174.302 130.317 C 174.603 130.317 177.657 131.793 181.089 133.596 M 200.736 133.258 C 200.51 135.599 199.761 136.568 197.061 138.009 C 193.965 139.662 193.67 140.151 193.668 143.642 C 193.665 146.985 193.32 147.644 190.911 148.889 L 188.158 150.313 L 188.423 143.256 L 188.688 136.199 L 194.118 133.283 C 200.873 129.656 201.083 129.655 200.736 133.258 M 215.34 137.026 L 221.177 140.028 L 216.245 142.878 C 208.95 147.092 208.065 147.152 201.867 143.849 C 195.133 140.26 195.125 140.044 201.584 136.71 C 208.061 133.366 208.23 133.37 215.34 137.026 M 163.045 138.538 C 166.577 140.339 167.693 140.391 171.267 138.92 C 172.567 138.385 172.851 138.752 172.851 140.97 C 172.851 146.701 167.791 146.867 158.458 141.443 L 154.472 139.127 L 156.648 137.921 C 159.386 136.404 158.741 136.342 163.045 138.538 M 166.516 153.506 C 166.516 161.192 166.823 161.024 159.729 157.214 L 154.299 154.299 L 154.033 147.215 L 153.767 140.131 L 160.142 143.481 L 166.516 146.831 L 166.516 153.506 M 207.972 150.91 C 208.213 153.356 207.748 154.083 204.615 156.156 L 200.978 158.564 L 197.774 156.584 L 194.57 154.604 L 194.57 147.815 L 194.57 141.026 L 201.131 144.548 C 206.917 147.655 207.725 148.407 207.972 150.91 M 221.719 144.206 C 221.719 146.866 221.277 147.436 218.1 148.869 C 214.922 150.302 214.48 150.872 214.48 153.531 C 214.48 156.717 213.685 157.168 210.8 155.624 C 205.571 152.825 213.501 142.13 221.493 141.203 C 221.618 141.188 221.719 142.54 221.719 144.206 M 177.412 146.625 C 183.27 149.613 182.591 152.865 175.252 156.969 C 167.482 161.315 167.421 161.291 167.421 153.897 C 167.421 145.02 170.242 142.967 177.412 146.625 M 234.824 147.706 C 242.106 151.296 242.106 151.318 234.574 155.111 L 228.424 158.208 L 222.315 154.983 C 215.57 151.422 215.568 151.461 222.626 147.572 C 228.711 144.218 227.73 144.207 234.824 147.706 M 196.432 157.041 C 199.731 158.747 199.729 158.902 196.38 160.633 C 194.038 161.845 193.665 162.543 193.665 165.723 L 193.665 169.41 L 190.643 167.627 C 188.011 166.073 187.341 165.999 185.44 167.053 C 182.17 168.865 181.9 168.663 181.9 164.406 C 181.9 161.152 181.517 160.281 179.638 159.276 C 178.394 158.61 177.376 157.792 177.376 157.458 C 177.376 157.125 178.394 156.388 179.638 155.821 C 181.331 155.05 181.9 154.096 181.9 152.032 L 181.9 149.275 L 184.67 150.707 C 187.242 152.037 187.645 152.018 190.326 150.446 L 193.213 148.753 L 193.491 152.208 C 193.714 154.978 194.298 155.937 196.432 157.041 M 222.172 155.98 L 227.602 158.998 L 227.867 165.967 L 228.132 172.937 L 225.378 171.513 C 222.935 170.25 222.624 169.634 222.624 166.059 C 222.624 162.267 222.41 161.918 219.005 160.181 C 216.004 158.65 215.385 157.873 215.385 155.638 C 215.385 152.284 215.535 152.292 222.172 155.98 M 242.347 159.485 L 242.081 166.03 L 235.836 169.44 C 232.4 171.316 229.448 172.851 229.275 172.851 C 229.101 172.851 228.959 169.834 228.959 166.146 L 228.959 159.441 L 234.615 156.223 C 242.562 151.701 242.662 151.743 242.347 159.485 M 214.646 158.907 C 221.804 162.512 221.865 162.163 213.313 166.584 L 208.074 169.292 L 201.749 165.969 C 198.271 164.141 195.589 162.481 195.79 162.28 C 196.192 161.877 207.542 155.71 207.941 155.677 C 208.078 155.665 211.095 157.119 214.646 158.907 M 163.481 160.354 L 167.234 162.341 L 171.214 160.23 C 174.898 158.276 175.386 158.219 177.775 159.471 L 180.357 160.824 L 174.145 164.122 C 166.603 168.127 167.621 168.127 160.448 164.116 C 154.657 160.877 154.581 160.787 156.681 159.623 C 159.455 158.085 159.133 158.051 163.481 160.354 M 160.86 165.404 L 166.516 168.352 L 166.516 175.126 C 166.516 183.014 166.937 182.798 159.589 178.689 L 153.846 175.477 L 153.846 168.659 C 153.846 164.908 154.152 161.979 154.525 162.148 C 154.898 162.318 157.749 163.783 160.86 165.404 M 180.995 168.695 L 180.995 175.4 L 175.082 178.65 C 167.229 182.966 167.297 182.996 167.607 175.385 L 167.873 168.869 L 173.756 165.448 C 181.33 161.043 180.995 160.893 180.995 168.695 M 199.357 165.729 C 207.781 169.992 208.145 170.477 208.145 177.437 C 208.145 184.379 208.228 184.268 204.48 182.33 C 202.148 181.124 201.81 180.454 201.81 177.037 C 201.81 173.349 201.603 173.032 198.19 171.493 C 195.013 170.06 194.57 169.49 194.57 166.831 C 194.57 163.25 194.494 163.268 199.357 165.729 M 221.719 170.577 L 221.719 177.353 L 215.385 180.543 L 209.05 183.733 L 209.05 176.987 L 209.05 170.241 L 214.706 167.035 C 222.033 162.882 221.719 162.724 221.719 170.577 M 194.355 170.687 L 200.195 173.954 L 193.763 177.444 L 187.33 180.934 L 184.38 179.193 C 179.175 176.123 181.217 167.773 187.243 167.482 C 187.942 167.448 191.142 168.891 194.355 170.687 M 200.89 182.127 L 200.874 188.688 L 194.555 192.098 L 188.235 195.509 L 188.249 188.478 L 188.263 181.448 L 193.453 178.573 C 200.851 174.476 200.907 174.503 200.89 182.127 M 187.33 188.703 C 187.33 195.89 187.079 196.285 183.912 194.066 C 182.353 192.975 181.9 191.764 181.9 188.688 C 181.9 185.013 181.629 184.556 178.245 182.538 L 174.59 180.358 L 176.661 178.974 C 178.567 177.7 179.077 177.763 183.032 179.76 L 187.33 181.931 L 187.33 188.703 M 164.637 182.456 C 166.916 183.803 167.336 183.801 169.976 182.436 C 172.694 181.03 173.035 181.053 176.615 182.879 L 180.389 184.805 L 173.76 188.293 L 167.131 191.781 L 161.347 188.547 C 158.165 186.768 155.332 185.543 155.05 185.825 C 154.768 186.106 157.233 187.666 160.527 189.29 L 166.516 192.244 L 166.516 199.342 L 166.516 206.441 L 160.16 202.994 L 153.805 199.548 L 154.052 192.333 L 154.299 185.119 L 157.919 183.072 C 162.26 180.617 161.622 180.675 164.637 182.456 M 64.339 186.425 C 64.307 188.665 64.638 191.062 65.075 191.751 C 65.564 192.523 65.703 191.307 65.439 188.584 C 64.842 182.454 64.407 181.6 64.339 186.425 M 180.992 192.986 L 180.989 199.548 L 174.943 202.715 C 171.617 204.457 168.565 206.018 168.159 206.184 C 167.753 206.35 167.421 203.434 167.421 199.704 L 167.421 192.923 L 173.077 189.737 C 180.976 185.288 180.996 185.297 180.992 192.986 M 121.797 227.29 C 121.586 227.959 121.243 229.578 121.034 230.886 L 120.655 233.266 L 129.693 233.422 C 142.454 233.642 146.606 236.434 146.606 244.796 C 146.606 253.089 143.287 255.544 131.314 256.109 L 121.719 256.561 L 121.719 259.729 L 121.719 262.896 L 129.864 263.178 C 134.344 263.334 139.532 263.013 141.393 262.466 C 143.254 261.919 145.086 261.403 145.465 261.32 C 150.71 260.164 155.161 246.85 152.956 238.914 C 152.472 237.172 151.984 235.339 151.871 234.842 C 151.702 234.095 148.427 231.184 143.439 227.345 C 141.69 225.999 122.22 225.95 121.797 227.29 M 174.815 227.777 C 172.093 232.899 164.738 251.809 165.187 252.534 C 167.421 256.15 171.714 253.348 174.617 246.38 C 176.225 242.523 177.875 239.014 178.286 238.584 C 179.197 237.627 182.193 243.138 181.432 244.37 C 181.133 244.854 181.245 245.249 181.681 245.249 C 182.403 245.249 186.425 253.895 186.425 255.447 C 186.425 255.811 181.222 256.109 174.862 256.109 C 162.309 256.109 160.291 256.862 160.923 261.312 C 161.211 263.341 161.273 263.348 178.162 263.348 C 199.011 263.348 198.219 263.936 193.112 252.258 C 190.921 247.248 189.31 242.968 189.532 242.745 C 189.755 242.523 189.517 241.875 189.005 241.306 C 188.493 240.737 186.767 237.217 185.169 233.484 C 182.015 226.114 177.13 223.421 174.815 227.777 M 203.361 226.805 C 200.737 229.429 202.781 233.583 206.561 233.31 C 210.3 233.039 210.407 232.944 210.407 229.864 C 210.407 226.731 205.546 224.62 203.361 226.805 M 214.529 227.962 C 213.515 229.857 213.162 259.41 214.124 261.917 C 214.867 263.854 220.427 263.854 221.17 261.917 C 221.472 261.13 221.719 254.41 221.719 246.985 L 221.719 233.484 L 227.204 233.484 L 232.688 233.484 L 232.408 230.09 L 232.127 226.697 L 223.805 226.437 C 216.303 226.203 215.39 226.353 214.529 227.962 M 252.576 227.891 C 250.633 231.522 242.534 251.176 242.534 252.261 C 242.534 252.972 243.833 253.394 246.026 253.394 L 249.519 253.394 L 252.587 245.978 C 254.275 241.899 256.059 238.601 256.552 238.647 C 257.335 238.722 264.149 253.626 264.225 255.43 C 264.241 255.803 258.974 256.109 252.521 256.109 C 239.782 256.109 238.915 256.465 238.913 261.705 L 238.912 263.801 L 256.56 263.538 C 276.794 263.236 275.887 263.751 271.93 254.803 C 270.677 251.969 269.865 249.307 270.126 248.885 C 270.386 248.463 270.209 247.982 269.731 247.815 C 269.254 247.648 266.894 242.828 264.488 237.104 C 260.117 226.707 260.109 226.697 256.812 226.419 C 254.296 226.208 253.29 226.558 252.576 227.891 M 72.417 261.81 C 72.407 262.208 73.02 263.735 73.779 265.203 C 74.538 266.672 74.868 267.873 74.511 267.873 C 74.154 267.873 74.529 268.382 75.343 269.005 C 76.157 269.627 76.948 270.731 77.1 271.458 C 77.251 272.185 78.074 273.57 78.928 274.536 C 79.782 275.502 80.293 276.595 80.064 276.965 C 79.836 277.336 80.283 277.882 81.058 278.179 C 81.833 278.477 82.241 279.088 81.963 279.537 C 81.685 279.986 82.125 280.609 82.94 280.922 C 83.755 281.235 84.163 281.75 83.846 282.067 C 83.529 282.384 84.088 283.217 85.089 283.917 C 86.089 284.618 86.632 285.673 86.295 286.261 C 85.958 286.849 86.017 287.027 86.425 286.657 C 87.29 285.874 90.173 289.611 89.737 290.95 C 89.575 291.448 89.708 291.589 90.032 291.265 C 90.725 290.572 98.171 298.409 98.231 299.894 C 98.254 300.45 98.718 300.818 99.263 300.712 C 99.807 300.606 102.261 302.642 104.715 305.237 C 107.169 307.832 109.467 310.04 109.822 310.145 C 110.176 310.249 112.184 311.708 114.283 313.387 C 116.382 315.066 119.627 317.355 121.493 318.474 C 123.36 319.594 124.887 320.908 124.887 321.394 C 124.887 321.881 125.232 322.065 125.655 321.804 C 126.077 321.543 127.391 322.232 128.575 323.334 C 129.758 324.437 130.94 325.202 131.2 325.034 C 131.794 324.652 149.573 333.21 150.327 334.24 C 150.632 334.656 151.141 334.961 151.459 334.919 C 151.776 334.876 152.138 334.872 152.262 334.909 C 152.387 334.946 153.507 335.161 154.751 335.388 C 155.995 335.614 157.142 336.172 157.298 336.627 C 157.455 337.082 158.209 337.215 158.973 336.921 C 159.738 336.628 160.652 336.854 161.004 337.425 C 161.468 338.175 162.13 338.086 163.402 337.102 C 164.886 335.953 164.911 335.828 163.563 336.298 C 162.686 336.604 161.427 336.405 160.765 335.856 C 160.103 335.307 159.344 335.075 159.079 335.341 C 158.396 336.023 146.606 331.072 146.606 330.103 C 146.606 329.664 146.236 329.534 145.783 329.814 C 144.513 330.599 142.017 329.344 142.688 328.258 C 143.055 327.664 142.735 327.505 141.852 327.843 C 141.033 328.158 140.211 327.843 139.928 327.107 C 139.653 326.39 138.82 326.058 138.043 326.356 C 137.278 326.65 136.652 326.416 136.652 325.835 C 136.652 325.255 136.244 325.032 135.747 325.339 C 135.249 325.647 134.842 325.443 134.842 324.887 C 134.842 324.33 134.434 324.127 133.937 324.434 C 133.439 324.742 133.032 324.562 133.032 324.035 C 133.032 323.508 132.719 323.179 132.336 323.303 C 130.203 323.997 107.169 307.67 108.385 306.327 C 108.751 305.923 108.612 305.841 108.078 306.145 C 106.978 306.77 93.801 293.913 94.543 292.938 C 94.807 292.591 94.76 292.502 94.439 292.74 C 93.622 293.346 87.263 284.978 87.632 283.783 C 87.798 283.245 87.626 283.113 87.25 283.489 C 86.361 284.378 81.376 276.866 82.09 275.712 C 82.389 275.227 82.165 275.123 81.588 275.479 C 80.602 276.088 80.104 274.871 80.511 272.851 C 80.612 272.353 80.383 272.257 80.003 272.636 C 79.623 273.016 77.765 270.573 75.874 267.207 C 73.983 263.84 72.427 261.412 72.417 261.81 M 120.812 274.345 C 120.811 276.351 121.083 276.453 125.673 276.154 C 128.778 275.952 130.332 276.167 129.972 276.749 C 129.633 277.297 130.149 277.466 131.267 277.173 C 132.874 276.753 133.078 277.04 132.775 279.294 C 132.444 281.76 132.181 281.905 127.886 281.978 C 120.842 282.098 120.339 282.496 120.594 287.746 C 120.882 293.683 124.887 294.902 124.887 289.053 L 124.887 285.798 L 129.327 286.112 C 131.769 286.284 133.615 286.181 133.43 285.883 C 133.245 285.585 134.065 284.821 135.253 284.185 C 136.44 283.549 137.213 282.511 136.97 281.878 C 136.727 281.244 136.963 280.457 137.495 280.129 C 138.027 279.8 138.455 278.843 138.448 278.001 C 138.436 276.671 138.307 276.648 137.464 277.828 C 136.685 278.918 136.582 278.785 136.941 277.148 C 137.187 276.027 137.019 275.339 136.567 275.618 C 136.116 275.897 135.747 275.558 135.747 274.865 C 135.747 273.446 135.823 273.465 127.149 272.745 C 120.955 272.231 120.814 272.267 120.812 274.345 M 147.014 276.202 C 146.071 278.341 145.084 280.294 144.821 280.543 C 144.559 280.792 144.192 281.606 144.007 282.353 C 143.822 283.1 143.483 284.369 143.254 285.174 C 142.967 286.183 143.55 286.775 145.13 287.077 C 146.391 287.318 147.375 287.27 147.318 286.97 C 147.073 285.681 148.683 281.448 149.419 281.448 C 149.863 281.448 150.178 281.143 150.119 280.769 C 149.687 278.036 150.626 279.039 152.449 283.258 L 154.599 288.235 L 148.351 288.501 C 143.239 288.718 141.931 289.089 141.155 290.537 C 140.241 292.245 140.563 292.308 150.255 292.308 C 161.868 292.308 161.256 293.586 155.744 280.84 C 151.57 271.188 149.671 270.179 147.014 276.202 M 165.309 273.002 C 163.437 274.874 164.948 276.018 169.29 276.018 C 174.351 276.018 177.376 277.203 177.376 279.186 C 177.376 281.168 174.351 282.353 169.29 282.353 L 164.706 282.353 L 164.706 287.33 C 164.706 292.036 164.829 292.308 166.968 292.308 C 168.951 292.308 169.231 291.916 169.231 289.14 C 169.231 284.629 172.864 284.623 175.784 289.129 C 177.113 291.182 178.54 292.289 179.864 292.296 C 182.345 292.31 182.388 291.624 180.09 288.688 C 177.946 285.946 177.891 285.328 179.638 283.581 C 181.063 282.157 181.452 277.232 180.284 275.396 C 178.753 272.987 167.175 271.136 165.309 273.002 M 192.335 275.339 C 191.654 276.957 190.264 280.215 189.246 282.579 L 187.395 286.878 L 189.51 286.878 C 191.168 286.878 192.026 285.95 193.485 282.579 L 195.346 278.281 L 197.22 282.655 C 199.818 288.715 199.837 288.688 192.857 288.688 C 187.905 288.688 186.501 288.994 186.048 290.175 C 185.208 292.364 185.359 292.394 195.729 292.113 L 205.27 291.855 L 201.185 282.127 C 196.643 271.31 194.668 269.796 192.335 275.339 M 209.955 274.208 C 209.955 275.711 210.558 276.018 213.516 276.018 C 220.493 276.018 223.492 278.079 223.516 282.891 C 223.536 287.052 221.158 288.688 215.087 288.688 C 210.558 288.688 209.955 288.901 209.955 290.498 C 209.955 293.757 221.047 293.12 224.504 289.662 C 229.403 284.763 228.128 276.186 222.128 273.679 C 217.234 271.634 209.955 271.951 209.955 274.208 M 238.36 273.334 C 230.198 276.423 231.361 292.308 239.749 292.308 C 242.379 292.308 242.091 290.751 238.914 287.783 C 237.195 286.177 236.199 284.351 236.199 282.805 C 236.199 281.26 237.195 279.434 238.914 277.828 C 242.728 274.266 242.423 271.796 238.36 273.334 M 243.439 274.661 C 243.439 276.051 243.953 276.923 244.773 276.923 C 248.899 276.923 249.254 286.964 245.173 288.259 C 242.969 288.959 242.844 292.315 245.023 292.288 C 253.272 292.183 254.877 277.799 247.088 273.771 C 243.602 271.968 243.439 272.008 243.439 274.661 M 256.674 273.12 C 255.919 274.342 260.659 279.638 262.509 279.638 C 264.778 279.638 264.713 278.377 262.273 275.076 C 260.389 272.527 257.635 271.565 256.674 273.12 M 269.087 274.434 C 266.048 277.841 256.109 291.07 256.109 291.709 C 256.109 293.752 260.645 291.948 262.553 289.146 C 265.211 285.243 265.333 285.243 267.983 289.134 C 269.366 291.165 270.864 292.298 272.172 292.302 C 274.85 292.31 274.776 291.966 270.981 286.797 L 267.754 282.401 L 270.966 278.194 C 272.733 275.88 273.957 273.63 273.687 273.193 C 272.838 271.819 270.971 272.323 269.087 274.434 M 311.312 283.258 C 310.249 284.751 309.175 285.973 308.927 285.973 C 308.678 285.973 309.344 284.751 310.407 283.258 C 311.471 281.765 312.544 280.543 312.793 280.543 C 313.042 280.543 312.375 281.765 311.312 283.258 M 305.732 290.708 C 298.624 299.732 280.47 316.203 273.923 319.567 C 271.248 320.942 272.892 319.396 277.828 315.895 C 285.688 310.321 295.13 301.745 301.552 294.346 C 308.513 286.326 310.645 284.471 305.732 290.708 M 117.257 309.635 C 118.218 310.953 119.282 311.862 119.621 311.656 C 119.961 311.45 120.812 312.101 121.512 313.101 C 122.213 314.102 123.046 314.661 123.363 314.344 C 123.68 314.027 124.195 314.435 124.508 315.25 C 124.821 316.065 125.39 316.538 125.773 316.301 C 126.156 316.065 127.538 316.862 128.845 318.073 C 130.152 319.285 131.222 320.115 131.222 319.919 C 131.222 319.485 145.967 326.774 146.606 327.524 C 146.855 327.816 148.059 328.166 149.282 328.303 C 150.504 328.44 151.777 328.992 152.11 329.531 C 152.523 330.199 152.899 330.212 153.295 329.571 C 153.976 328.47 153.711 328.307 148.643 326.712 C 146.527 326.047 144.796 325.092 144.796 324.591 C 144.796 324.09 144.53 323.946 144.205 324.272 C 143.433 325.044 127.509 316.648 126.942 315.17 C 126.703 314.547 126.14 314.265 125.691 314.542 C 125.242 314.82 124.631 314.413 124.333 313.637 C 124.036 312.862 123.425 312.455 122.976 312.732 C 122.527 313.01 121.915 312.6 121.616 311.822 C 121.318 311.044 120.64 310.407 120.11 310.407 C 119.58 310.407 118.328 309.695 117.328 308.824 C 115.512 307.243 115.512 307.244 117.257 309.635 M 165.112 337.631 C 164.834 338.081 165.628 338.365 166.876 338.262 C 169.227 338.067 169.267 337.348 166.946 337.008 C 166.216 336.9 165.39 337.181 165.112 337.631 M 212.896 338.18 C 213.767 338.408 215.192 338.408 216.063 338.18 C 216.934 337.953 216.222 337.767 214.48 337.767 C 212.738 337.767 212.025 337.953 212.896 338.18 M 195.734 339.131 C 198.615 339.311 203.094 339.31 205.689 339.128 C 208.284 338.945 205.928 338.798 200.452 338.8 C 194.977 338.802 192.854 338.951 195.734 339.131 M 215.385 339.367 C 212.981 339.872 212.763 340.049 214.48 340.1 C 215.724 340.137 218.371 339.83 220.362 339.418 C 223.38 338.794 223.53 338.672 221.267 338.685 C 219.774 338.693 217.127 339 215.385 339.367 M 202.941 340.92 C 204.31 341.127 206.55 341.127 207.919 340.92 C 209.287 340.712 208.167 340.543 205.43 340.543 C 202.692 340.543 201.572 340.712 202.941 340.92" stroke-linecap="round"/>
</g>
</svg>