<svg xmlns="http://www.w3.org/2000/svg" xmlns:xlink="http://www.w3.org/1999/xlink" version="1.1" width="1000" height="1000" viewBox="0 0 1000 1000" xml:space="preserve">
<desc>Created with Fabric.js 3.5.0</desc>
<defs>
</defs>
<rect x="0" y="0" width="100%" height="100%" fill="rgba(255,255,255,0)"/>
<g transform="matrix(3.2266 0 0 3.2266 499.9954 499.9983)" id="541670">
<path style="stroke: none; stroke-width: 1; stroke-dasharray: none; stroke-linecap: butt; stroke-dashoffset: 0; stroke-linejoin: miter; stroke-miterlimit: 4; is-custom-font: none; font-file-url: none; fill: rgb(0,208,255); fill-rule: evenodd; opacity: 1;" vector-effect="non-scaling-stroke" transform=" translate(-199.444, -113.4379)" d="M 68.029 66.616 L 60.503 70.932 L 60.823 78.775 C 61.002 83.17 60.642 86.307 60.003 85.912 C 59.376 85.525 58.904 87.177 58.955 89.584 C 59.006 91.991 59.476 93.962 60 93.965 C 60.524 93.967 60.952 97.327 60.952 101.432 C 60.952 107.754 61.39 109.192 63.81 110.827 L 66.667 112.758 L 63.266 113.637 C 61.396 114.12 59.546 115.35 59.154 116.371 C 58.755 117.411 58.994 117.886 59.697 117.451 C 60.472 116.972 60.952 119.649 60.952 124.444 C 60.952 129.994 60.533 131.954 59.486 131.307 C 58.599 130.759 58.364 130.958 58.892 131.812 C 59.372 132.588 60.696 132.865 61.836 132.427 C 63.162 131.919 63.597 132.136 63.045 133.03 C 62.57 133.799 62.762 134.787 63.471 135.225 C 65.675 136.588 64.899 138.423 61.587 139.683 C 58.835 140.729 58.438 141.611 58.603 146.318 L 58.794 151.746 L 59.683 146.032 C 60.539 140.521 60.578 140.614 60.762 148.655 L 60.952 156.993 L 68.554 160.627 L 76.156 164.26 L 82.641 161.222 C 89.087 158.203 93.192 154.207 91.936 152.174 C 91.574 151.589 91.884 151.111 92.623 151.111 C 93.363 151.111 93.968 151.632 93.968 152.269 C 93.968 154.119 97.421 153.119 104.833 149.121 C 110.612 146.004 111.738 144.828 111.742 141.905 C 111.744 139.984 112.351 138.413 113.091 138.413 C 113.83 138.413 114.086 138.978 113.66 139.668 C 113.199 140.414 113.769 140.584 115.063 140.087 C 116.539 139.521 116.946 139.729 116.326 140.733 C 115.638 141.846 116.291 141.88 118.949 140.869 C 125.286 138.46 134.6 132.963 134.75 131.544 C 135.208 127.211 135.163 125.894 134.399 121.275 C 133.854 117.978 134.076 115.841 135.034 115.175 C 135.946 114.541 135.539 114.318 133.968 114.591 C 132.369 114.87 130.557 113.838 129.072 111.803 C 127.756 109.998 127.038 109.552 127.445 110.794 C 127.846 112.016 127.621 113.016 126.944 113.016 C 126.268 113.016 125.714 111.873 125.714 110.476 C 125.714 107.125 127.533 107.273 134.174 111.165 C 140.303 114.756 143.227 129.276 137.46 127.483 C 135.58 126.899 135.606 127.027 137.626 128.314 C 139.522 129.522 140.831 129.446 143.976 127.947 C 146.154 126.908 148.236 126.124 148.601 126.204 C 152.073 126.964 155.027 120.467 154.668 112.861 L 154.286 104.762 L 147.495 101.123 C 141.772 98.056 140.215 97.706 137.598 98.898 C 135.2 99.991 134.54 99.952 134.698 98.728 C 135.176 95.046 134.369 93.816 130.159 91.808 C 127.714 90.642 125.714 89.189 125.714 88.579 C 125.714 87.968 125.143 87.822 124.444 88.254 C 123.746 88.686 123.175 88.491 123.175 87.82 C 123.175 86.476 117.454 86.717 113.968 88.209 C 112.187 88.972 111.746 88.524 111.746 85.954 C 111.746 81.674 110.475 78.581 109.073 79.447 C 108.448 79.834 107.937 79.449 107.937 78.593 C 107.937 77.737 107.58 77.394 107.144 77.829 C 106.709 78.265 104.244 77.546 101.668 76.232 C 98.565 74.649 96.367 74.232 95.158 74.997 C 92.345 76.777 91.429 76.424 91.429 73.56 C 91.429 72.113 90.571 70.073 89.524 69.025 C 88.476 67.977 87.619 67.471 87.619 67.899 C 87.619 68.328 85.14 67.226 82.111 65.45 C 75.469 61.558 77.08 61.425 68.029 66.616 M 79.727 65.685 C 81.623 66.891 83.524 68.368 83.951 68.968 C 84.379 69.568 85.093 70.009 85.539 69.95 C 88.11 69.606 88.943 69.996 88.2 71.198 C 87.739 71.944 86.437 72.199 85.307 71.765 C 84.177 71.332 83.661 71.386 84.161 71.886 C 84.661 72.386 83.344 73.845 81.235 75.128 C 77.213 77.574 74.154 78.115 73.439 76.508 C 73.206 75.984 70.776 74.518 68.038 73.251 L 63.06 70.946 L 69.308 67.283 C 76.845 62.864 75.594 63.056 79.727 65.685 M 69.201 75.62 L 74.728 78.859 L 74.641 87.048 C 74.559 94.696 73.605 96.977 71.746 93.968 C 71.314 93.27 71.709 92.676 72.623 92.648 C 73.538 92.62 72.571 91.679 70.476 90.558 C 68.381 89.437 66.317 87.983 65.89 87.326 C 65.462 86.669 64.605 86.232 63.985 86.355 C 63.365 86.477 62.726 83.383 62.565 79.479 C 62.227 71.266 61.999 71.399 69.201 75.62 M 90.159 74.846 C 90.159 77.799 88.1 79.4 87.193 77.151 C 86.805 76.188 86.51 76.437 86.449 77.778 C 86.359 79.775 84.929 80.578 82.222 80.15 C 81.698 80.068 81.338 80.429 81.42 80.952 C 82.101 85.262 80.971 91.271 79.365 91.888 C 73.922 93.976 77.118 79.195 82.857 75.734 C 89.408 71.784 90.159 71.693 90.159 74.846 M 110.021 84.759 C 110.422 86.329 110.439 88.424 110.058 89.416 C 109.678 90.407 110.217 91.545 111.257 91.944 C 112.475 92.411 112.824 92.146 112.239 91.198 C 111.626 90.207 112.04 90 113.508 90.563 C 114.71 91.024 115.365 90.877 114.968 90.236 C 113.353 87.623 119.498 87.633 124.69 90.252 C 131.613 93.744 131.735 93.871 129.487 95.261 C 128.175 96.072 127.329 95.768 126.641 94.239 C 125.909 92.612 125.799 92.784 126.204 94.921 C 126.691 97.486 125.7 98.377 122.857 97.928 C 122.333 97.845 121.905 98.322 121.905 98.987 C 121.905 101.851 111.513 98.633 107.365 94.485 C 104.417 91.538 101.859 94.09 102.612 99.226 C 103.11 102.614 102.861 103.13 101.06 102.439 C 99.793 101.953 99.233 102.13 99.692 102.872 C 100.118 103.562 99.834 104.127 99.059 104.127 C 98.147 104.127 97.785 101.554 98.032 96.825 C 98.293 91.815 98.911 89.623 100 89.841 C 100.873 90.016 101.587 89.657 101.587 89.043 C 101.587 88.429 103.32 87.209 105.438 86.332 C 107.555 85.455 109.039 84.489 108.735 84.185 C 108.431 83.881 105.739 84.879 102.752 86.403 L 97.321 89.173 L 91.801 86.491 C 85.497 83.428 85.079 83.341 85.079 85.079 C 85.079 85.778 85.539 86.206 86.1 86.032 C 90.844 84.557 96.605 90.985 96.343 97.46 C 96.195 101.127 95.912 104.127 95.715 104.127 C 94.199 104.127 88.889 100.947 88.889 100.039 C 88.889 99.411 88.346 99.233 87.683 99.643 C 85.677 100.883 83.771 95.71 84 89.647 C 84.27 82.522 84.494 82.176 91.381 78.265 L 97.02 75.062 L 103.156 78.483 C 106.793 80.511 109.589 83.067 110.021 84.759 M 188.358 77.427 C 179.308 78.199 178.978 78.398 180.425 82.222 C 181.407 84.819 182.348 85.083 190.753 85.12 C 200.329 85.162 205.605 87.254 203.74 90.27 C 203.162 91.206 203.311 91.494 204.115 90.997 C 207.935 88.636 207.856 100.432 204.023 104.889 C 201.358 107.987 200.022 108.392 190.689 108.932 C 180.886 109.5 180.317 109.693 180.317 112.454 C 180.317 115.253 180.79 115.392 191.629 115.783 C 198.3 116.023 202.643 115.711 202.214 115.022 C 201.8 114.355 202.514 114.248 203.88 114.772 C 205.195 115.277 205.937 115.355 205.527 114.945 C 205.118 114.536 206.707 112.277 209.058 109.926 C 211.41 107.575 213.333 104.737 213.333 103.619 C 213.333 102.502 213.91 101.587 214.615 101.587 C 216.119 101.587 215.446 94.925 213.411 89.665 C 212.117 86.319 205.714 77.623 205.714 79.211 C 205.714 79.583 203.571 79.184 200.952 78.323 C 198.128 77.396 193.004 77.031 188.358 77.427 M 236.778 78.879 C 236.354 80.214 235.484 80.983 234.844 80.587 C 234.204 80.192 234.02 80.755 234.436 81.839 C 234.876 82.984 234.515 83.81 233.575 83.81 C 232.685 83.81 232.341 84.192 232.809 84.661 C 233.277 85.129 232.787 86.843 231.721 88.47 C 230.655 90.097 230.054 91.429 230.385 91.429 C 230.716 91.429 229.885 93.857 228.537 96.825 C 225.178 104.226 225.367 105.397 229.916 105.397 C 232.182 105.397 233.474 105.926 233.016 106.667 C 232.584 107.365 232.875 107.937 233.661 107.937 C 234.542 107.937 234.763 106.899 234.235 105.238 C 233.663 103.436 233.841 102.825 234.77 103.399 C 235.642 103.938 235.879 103.523 235.405 102.288 C 234.988 101.201 235.313 100.317 236.13 100.317 C 236.944 100.317 237.268 99.764 236.85 99.087 C 236.432 98.41 237.158 95.773 238.465 93.226 L 240.84 88.596 L 242.537 92.691 C 243.47 94.943 244.233 97.581 244.233 98.552 C 244.233 99.523 244.642 100.317 245.143 100.317 C 245.643 100.317 246.341 101.317 246.692 102.54 C 247.043 103.762 247.735 105.741 248.228 106.938 C 249.036 108.899 247.821 109.151 235.991 109.478 C 223.465 109.824 222.838 109.973 222.451 112.698 C 221.85 116.932 258.31 117.243 259.416 113.014 C 259.839 111.397 259.583 110.78 258.713 111.318 C 257.849 111.852 257.644 111.386 258.157 110.05 C 258.603 108.887 258.484 107.937 257.892 107.937 C 256.834 107.937 254.402 102.787 253.694 99.048 C 253.496 98 252.969 96.857 252.524 96.508 C 250.979 95.296 247.64 86.073 248.337 84.944 C 248.723 84.32 248.338 83.81 247.482 83.81 C 246.626 83.81 246.272 83.463 246.696 83.039 C 247.841 81.894 243.592 77.939 240.362 77.144 C 238.331 76.644 237.334 77.127 236.778 78.879 M 265.397 80.876 C 265.397 85.035 265.591 85.222 269.524 84.842 C 272.953 84.512 273.651 83.917 273.651 81.322 C 273.651 78.819 272.832 78.032 269.524 77.355 C 265.504 76.533 265.397 76.625 265.397 80.876 M 278.523 77.798 C 278.191 78.334 277.531 78.531 277.055 78.237 C 276.58 77.943 276.19 86.22 276.19 96.629 L 276.19 115.556 L 280.317 115.556 L 284.444 115.556 L 284.444 100.223 L 284.444 84.891 L 291.111 85.233 C 297.87 85.579 299.92 82.484 295.784 78.179 C 294.411 76.75 279.379 76.419 278.523 77.798 M 316.825 79.057 C 316.127 79.925 315.356 81.778 315.111 83.175 C 314.867 84.571 314.01 86.134 313.206 86.647 C 312.403 87.16 312.145 87.589 312.632 87.6 C 313.12 87.61 312.921 89.333 312.191 91.427 C 311.461 93.521 310.47 94.992 309.99 94.695 C 309.509 94.398 309.079 95.113 309.034 96.284 C 308.989 97.455 308.519 99.984 307.989 101.905 C 307.088 105.172 307.281 105.397 310.973 105.397 C 313.237 105.397 314.959 104.72 315.01 103.81 C 315.059 102.937 315.59 103.365 316.19 104.762 C 317.063 106.791 317.3 106.876 317.371 105.183 C 317.42 104.018 317.8 102.018 318.215 100.739 C 318.843 98.804 318.739 98.733 317.6 100.317 C 316.723 101.536 316.222 101.668 316.21 100.684 C 316.199 99.839 317.476 97.897 319.048 96.371 C 320.619 94.844 321.19 93.998 320.317 94.491 C 318.352 95.602 318.304 94.598 320.157 91.136 C 321.812 88.043 328.02 100.335 326.631 103.955 C 326.203 105.069 326.459 105.479 327.27 104.978 C 328.728 104.077 330.482 107.19 329.225 108.447 C 328.807 108.865 323.152 109.206 316.658 109.206 C 305.188 109.206 299.781 111.421 303.113 114.754 C 304.36 116 340.317 115.698 340.317 114.441 C 340.317 113.828 339.453 111.256 338.396 108.727 C 337.339 106.197 336.91 104.118 337.443 104.108 C 337.976 104.097 337.768 103.668 336.98 103.155 C 336.191 102.642 333.242 96.794 330.426 90.159 C 325.147 77.725 320.773 74.154 316.825 79.057 M 64.169 88.591 C 65.77 89.729 65.804 92.114 64.241 93.545 C 63.555 94.172 63.511 93.869 64.132 92.8 C 64.911 91.457 64.639 91.204 63.065 91.808 C 61.536 92.395 60.952 91.929 60.952 90.119 C 60.952 87.502 61.962 87.022 64.169 88.591 M 106.326 91.429 C 107.522 92.825 108.95 93.968 109.499 93.968 C 110.048 93.968 109.784 92.825 108.912 91.429 C 108.039 90.032 106.612 88.889 105.739 88.889 C 104.665 88.889 104.855 89.711 106.326 91.429 M 70.347 93.212 C 70.015 94.078 71.194 95.447 72.967 96.255 C 75.627 97.467 76.19 97.395 76.19 95.846 C 76.19 94.813 76.429 93.968 76.722 93.968 C 77.014 93.968 78.156 93.621 79.261 93.197 C 82.304 92.03 81.833 97.387 78.748 99.038 C 76.497 100.243 66.032 96.657 66.032 94.681 C 66.032 92.508 67.821 90.438 69.231 90.979 C 70.177 91.342 70.679 92.347 70.347 93.212 M 69.023 97.958 L 74.621 100.678 L 74.547 107.86 L 74.473 115.041 L 68.665 111.944 C 62.876 108.857 62.857 108.826 62.857 102.043 C 62.857 98.3 62.985 95.238 63.141 95.238 C 63.297 95.238 65.943 96.462 69.023 97.958 M 108.367 98.339 C 108.754 99.346 110.101 100.179 111.36 100.19 C 112.62 100.201 115.322 100.48 117.365 100.811 C 119.599 101.173 122.994 100.435 125.886 98.96 C 131.958 95.862 132.335 95.888 131.804 99.365 C 131.564 100.937 130.668 102.079 129.811 101.905 C 128.955 101.73 128.236 102.302 128.214 103.175 C 128.191 104.063 127.295 103.644 126.177 102.222 C 124.204 99.711 124.191 99.713 125 102.433 C 125.45 103.945 125.223 105.551 124.496 106 C 123.769 106.449 123.175 105.865 123.175 104.701 C 123.175 103.385 122.486 102.85 121.352 103.285 C 120.349 103.67 119.252 103.302 118.912 102.468 C 118.573 101.635 118.251 102.795 118.195 105.047 C 118.067 110.277 111.921 114.279 108.804 111.162 C 107.795 110.153 106.615 109.681 106.183 110.113 C 105.751 110.546 105.397 107.661 105.397 103.704 C 105.397 96.895 106.824 94.317 108.367 98.339 M 85.578 100.998 C 86.651 102.07 87.977 102.91 88.526 102.863 C 89.075 102.816 89.71 104.285 89.939 106.127 C 90.205 108.275 89.863 109.174 88.986 108.632 C 88.234 108.167 87.619 108.286 87.619 108.896 C 87.619 109.849 79.744 114.286 78.052 114.286 C 76.612 114.286 77.567 100.486 79.048 99.889 C 81.913 98.733 83.6 99.019 85.578 100.998 M 146.845 102.394 L 152.555 105.74 L 149.055 108.036 C 147.13 109.298 145.091 110.045 144.524 109.694 C 143.956 109.343 143.492 109.65 143.492 110.376 C 143.492 112.217 137.418 111.259 131.8 108.533 C 127.449 106.421 126.194 103.065 130.353 104.661 C 131.382 105.056 131.853 104.813 131.42 104.112 C 130.741 103.015 131.362 102.726 134.014 102.902 C 134.388 102.927 135.571 102.07 136.644 100.998 C 139.267 98.374 140.205 98.503 146.845 102.394 M 97.143 105.699 C 97.841 105.699 99.413 105.284 100.635 104.777 C 102.714 103.915 103.728 106.562 102.976 110.888 C 102.876 111.464 103.296 111.625 103.908 111.246 C 104.521 110.867 106.107 111.426 107.432 112.487 C 109.725 114.324 109.687 114.379 106.667 113.633 C 104.493 113.097 104.033 113.225 105.209 114.04 C 106.583 114.993 106.388 115.607 104.228 117.12 C 102.371 118.42 101.806 119.727 102.414 121.312 C 103.139 123.2 102.857 123.441 100.855 122.651 C 96.665 120.996 93.968 120.732 93.968 121.978 C 93.968 122.636 93.336 123.175 92.563 123.175 C 91.789 123.175 91.458 122.389 91.827 121.428 C 92.196 120.467 91.74 118.222 90.815 116.438 C 89.89 114.655 89.489 112.839 89.924 112.404 C 90.36 111.968 89.719 111.994 88.5 112.462 C 86.89 113.08 86.646 113.748 87.607 114.906 C 89.048 116.642 82.219 120.314 78.92 119.578 C 77.974 119.367 77.581 119.803 78.043 120.55 C 78.545 121.362 77.705 121.897 75.948 121.885 C 73.858 121.871 73.502 121.558 74.71 120.792 C 76.065 119.933 75.989 119.559 74.326 118.921 C 73.112 118.456 72.571 118.646 73.025 119.38 C 74.118 121.148 72.855 120.945 68.39 118.637 C 66.265 117.537 64.287 116.877 63.996 117.168 C 63.705 117.459 65.714 118.711 68.461 119.95 C 72.027 121.558 73.268 122.796 72.799 124.276 C 72.295 125.864 72.424 125.954 73.351 124.66 C 74.174 123.512 74.549 125.24 74.524 130.057 C 74.503 133.954 74.257 137.143 73.977 137.143 C 73.697 137.143 70.986 135.688 67.952 133.91 L 62.436 130.678 L 62.87 123.574 C 63.12 119.48 64.109 115.664 65.204 114.569 C 67.716 112.058 71.353 113.43 70.217 116.46 C 69.544 118.255 69.748 118.459 71.191 117.437 C 72.195 116.725 75.81 116.181 79.226 116.226 C 82.642 116.272 84.784 116.092 83.988 115.827 C 82.097 115.196 82.112 113.016 84.007 113.016 C 87.191 113.016 94.309 106.4 92.51 105.114 C 91.287 104.24 91.523 104.148 93.333 104.793 C 94.73 105.292 96.444 105.699 97.143 105.699 M 122.63 107.211 C 125.436 110.017 124.97 112.117 121.905 110.476 C 120.508 109.729 119.365 108.28 119.365 107.257 C 119.365 104.913 120.319 104.9 122.63 107.211 M 153.297 114.708 C 153.14 121.432 153.096 121.503 147.145 124.676 L 141.152 127.872 L 140.735 120.015 C 140.336 112.514 140.447 112.173 143.175 112.475 C 144.746 112.65 146.032 112.176 146.032 111.423 C 146.032 110.669 146.385 110.407 146.818 110.839 C 147.25 111.271 148.434 110.795 149.448 109.781 C 152.611 106.618 153.461 107.707 153.297 114.708 M 123.275 112.433 C 125.356 113.509 127.702 113.992 128.487 113.506 C 129.362 112.966 129.563 113.195 129.005 114.098 C 128.484 114.94 129.023 115.93 130.258 116.404 C 131.898 117.034 130.763 118.076 125.581 120.702 L 118.739 124.17 L 112.656 121.087 C 109.31 119.392 106.919 117.444 107.342 116.759 C 107.766 116.075 108.584 115.806 109.161 116.162 C 109.738 116.519 110.56 115.898 110.989 114.782 C 111.447 113.588 112.574 113.062 113.727 113.504 C 114.805 113.918 115.369 113.741 114.979 113.11 C 114.326 112.053 116.032 110.818 118.476 110.576 C 119.034 110.521 121.194 111.357 123.275 112.433 M 90.159 123.83 C 90.159 130.686 90.058 130.881 85.397 133.036 C 82.778 134.247 80.444 135.667 80.212 136.19 C 78.764 139.448 77.389 136.12 77.714 130.144 C 77.924 126.295 78.603 123.201 79.223 123.268 C 79.843 123.336 80.701 122.854 81.128 122.198 C 81.751 121.24 88.561 117.081 89.841 116.876 C 90.016 116.848 90.159 119.977 90.159 123.83 M 107.302 120.635 C 106.87 121.333 106.935 122.581 107.446 123.408 C 108.101 124.468 108.594 124.286 109.118 122.79 C 111.091 117.167 118.095 125.004 118.095 132.835 C 118.095 141.192 112.819 140.62 111.978 132.171 C 111.697 129.341 110.645 127.698 108.486 126.714 C 105.374 125.296 103.966 119.365 106.742 119.365 C 107.481 119.365 107.733 119.937 107.302 120.635 M 131.884 126.032 L 132.096 132.698 L 125.731 136.264 L 119.365 139.829 L 119.365 132.927 C 119.365 125.756 121.542 122.078 124.706 123.904 C 125.61 124.425 125.903 124.361 125.357 123.762 C 124.505 122.826 128.7 119.542 130.915 119.41 C 131.331 119.385 131.767 122.365 131.884 126.032 M 100.845 125.258 C 101.244 126.296 102.133 126.797 102.822 126.371 C 104.546 125.305 109.456 128.092 108.521 129.606 C 107.642 131.028 98.464 135.873 96.649 135.873 C 94.139 135.873 91.429 131.76 91.429 127.952 C 91.429 125.79 91.782 124.375 92.215 124.807 C 92.647 125.24 93.806 124.788 94.791 123.803 C 96.831 121.763 99.775 122.47 100.845 125.258 M 277.582 127.18 C 278.155 128.108 277.929 128.301 276.966 127.706 C 275.388 126.731 271.746 128.994 271.746 130.949 C 271.746 131.562 274.069 132.063 276.909 132.063 C 283.763 132.063 286.984 133.934 286.984 137.913 C 286.984 142.305 284.182 144.758 279.138 144.781 C 274.547 144.803 270.644 146.623 272.09 148.069 C 277.386 153.365 291.716 146.168 291.182 138.48 C 290.906 134.501 290.999 134.343 291.975 137.143 L 293.08 140.317 L 293.207 136.825 C 293.286 134.645 292.676 133.333 291.584 133.333 C 290.622 133.333 289.051 132.333 288.092 131.111 C 286.476 129.05 286.534 129.027 288.889 130.794 C 291.241 132.557 291.3 132.535 289.697 130.49 C 288.745 129.276 287.461 128.594 286.842 128.976 C 286.224 129.358 284.448 128.781 282.894 127.693 C 279.582 125.373 276.267 125.053 277.582 127.18 M 179.858 130.159 C 179.27 131.692 180.342 132.063 185.362 132.063 C 191.073 132.063 196.15 134.487 190.869 134.692 C 188.774 134.774 188.788 134.867 191.027 135.743 C 194.545 137.121 191.343 138.796 186.953 137.874 C 182.211 136.878 180.132 138.56 179.889 143.59 C 179.737 146.725 180.267 147.965 181.905 148.301 C 183.577 148.645 184.127 147.925 184.127 145.394 C 184.127 142.483 184.596 142.08 187.62 142.397 C 189.541 142.599 191.827 142.322 192.699 141.783 C 193.572 141.244 194.294 141.265 194.305 141.83 C 194.358 144.611 196.789 138.581 196.806 135.628 C 196.841 129.436 181.976 124.639 179.858 130.159 M 206.711 133.656 C 202.778 143.392 202.761 143.492 205.01 143.492 C 206.209 143.492 207.688 141.851 208.444 139.683 C 210.068 135.025 211.206 134.886 213.13 139.107 C 215.416 144.125 215 144.677 209.024 144.557 C 203.033 144.437 200.238 145.477 200.936 147.569 C 201.353 148.821 219.247 149.43 220.445 148.233 C 220.759 147.918 219.902 145.061 218.54 141.884 C 217.178 138.706 216.401 135.768 216.815 135.355 C 217.228 134.941 216.961 134.603 216.222 134.603 C 215.483 134.603 214.52 133.175 214.082 131.429 C 212.818 126.393 209.203 127.485 206.711 133.656 M 226.032 130.023 C 226.032 131.39 227.725 132.033 232.063 132.311 C 241.042 132.888 240.987 137.593 231.994 138.168 L 225.893 138.558 L 226.28 143.882 C 226.697 149.63 228.952 150.683 229.608 145.436 C 230.156 141.052 235.122 141.027 237.46 145.397 C 238.395 147.143 240.271 148.571 241.63 148.571 C 244.002 148.571 244.014 148.437 241.933 145.261 C 240.217 142.643 240.093 141.647 241.338 140.499 C 242.547 139.384 242.676 139.461 241.895 140.831 C 241.247 141.966 241.367 142.312 242.224 141.782 C 242.965 141.324 243.289 139.665 242.945 138.094 C 242.442 135.799 242.587 135.612 243.68 137.143 C 244.768 138.667 245.04 138.286 245.04 135.238 C 245.04 132.649 244.694 131.976 243.958 133.137 C 243.15 134.411 242.679 134.061 242.101 131.759 C 241.148 127.961 226.032 126.328 226.032 130.023 M 254.507 129.917 C 253.755 130.779 253.401 132.265 253.719 133.22 C 254.037 134.175 253.775 134.633 253.135 134.238 C 252.496 133.843 251.906 134.478 251.824 135.649 C 251.742 136.82 251.267 139.063 250.769 140.635 C 249.353 145.099 253.347 144.247 255.238 139.683 C 256.106 137.587 257.262 135.873 257.808 135.873 C 258.537 135.873 261.587 142.479 261.587 144.058 C 261.587 144.161 258.942 144.321 255.709 144.414 C 250.217 144.572 246.255 146.36 247.854 147.96 C 248.896 149.001 268.033 148.91 269.005 147.858 C 269.465 147.361 269.123 146.698 268.246 146.384 C 267.369 146.071 266.974 145.292 267.369 144.653 C 267.763 144.015 267.448 143.492 266.667 143.492 C 265.886 143.492 265.6 142.921 266.032 142.222 C 266.463 141.524 266.278 140.952 265.62 140.952 C 263.946 140.952 262.911 136.327 264.279 134.959 C 264.936 134.302 264.582 132.8 263.431 131.36 C 261.527 128.978 261.483 129.004 262.203 132.063 C 262.933 135.166 262.905 135.159 260.958 131.746 C 258.823 128.003 256.701 127.401 254.507 129.917 M 300.168 131.111 C 295.758 134.412 295.27 141.858 299.182 146.18 C 301.294 148.514 306.051 149.516 306.012 147.619 C 305.978 145.944 303.88 143.268 302.765 143.478 C 299.217 144.144 299.991 135.207 303.651 133.248 C 305.992 131.995 307.01 128.254 305.009 128.254 C 304.446 128.254 302.268 129.54 300.168 131.111 M 307.942 129.514 C 307.463 130.29 308.588 132.33 310.442 134.048 C 314.222 137.551 313.949 141.559 309.723 144.599 C 306.654 146.808 306.619 148.571 309.644 148.571 C 312.229 148.571 316.19 144.815 316.19 142.365 C 316.19 141.506 316.697 141.116 317.317 141.499 C 318.473 142.213 318.602 138.285 317.46 137.143 C 317.111 136.794 316.222 135.414 315.486 134.077 C 313.507 130.486 309.019 127.772 307.942 129.514 M 321.27 129.368 C 321.27 129.981 322.127 131.194 323.175 132.063 C 324.222 132.933 325.079 134.431 325.079 135.394 C 325.079 137.654 326.901 137.633 328.795 135.351 C 329.829 134.105 329.87 133.305 328.93 132.724 C 328.186 132.264 327.961 131.268 328.429 130.51 C 328.919 129.718 328.694 129.494 327.903 129.983 C 327.145 130.452 326.166 130.254 325.727 129.545 C 324.75 127.964 321.27 127.827 321.27 129.368 M 328.571 137.836 C 324.556 143.101 321.27 147.956 321.27 148.625 C 321.27 151.19 324.728 149.67 327.538 145.869 L 330.475 141.897 L 333.583 145.869 C 335.293 148.054 337.508 149.841 338.505 149.841 C 341.034 149.841 340.79 148.796 337.143 144.014 C 334.036 139.94 332.859 136.308 335.095 137.689 C 335.714 138.072 336.143 137.392 336.047 136.177 C 335.951 134.962 336.466 134.071 337.191 134.196 C 337.916 134.321 338.623 133.035 338.764 131.339 C 339.208 125.974 336.118 127.944 328.571 137.836 M 110.476 137.669 C 110.476 144.041 104.047 151.111 98.253 151.111 C 95.273 151.111 98.244 136.967 101.587 135.238 C 103.683 134.155 105.397 133.609 105.397 134.026 C 105.397 134.443 106.295 133.887 107.392 132.789 C 110.311 129.87 110.476 130.131 110.476 137.669 M 90.908 133.148 C 90.54 133.744 91.649 134.875 93.373 135.66 C 96.711 137.181 98.325 151.111 95.163 151.111 C 94.424 151.111 94.167 150.546 94.594 149.856 C 95.039 149.136 94.529 148.923 93.399 149.357 C 91.824 149.961 91.429 149.11 91.429 145.112 C 91.429 141.078 90.815 139.783 88.254 138.413 C 84.324 136.309 84.232 134.862 87.937 133.373 C 91.653 131.879 91.694 131.876 90.908 133.148 M 72.832 137.883 C 74.012 138.336 74.449 139.445 73.959 140.74 C 73.218 142.697 73.321 142.696 75.317 140.718 C 78.625 137.44 82.085 136.824 85.914 138.83 L 89.395 140.653 L 82.793 143.999 L 76.19 147.344 L 69.6 144.005 C 63.015 140.668 63.012 140.664 66.108 138.949 C 69.687 136.966 70.223 136.882 72.832 137.883 M 69.192 145.321 C 74.327 148.331 74.488 148.628 74.77 155.597 L 75.061 162.774 L 68.641 159.281 L 62.222 155.787 L 62.222 149.005 C 62.222 141.194 62.184 141.214 69.192 145.321 M 89.896 149.125 C 89.714 156.021 89.707 156.032 83.52 159.4 L 77.327 162.771 L 77.711 155.388 C 78.083 148.242 78.259 147.912 83.175 145.134 C 90.056 141.245 90.103 141.273 89.896 149.125" stroke-linecap="round"/>
</g>
</svg>